PathFileType	4	(X/Y/Z)	Run_400 02
DataRate	CameraRate	NumFrames	NumMarkers	Units	OrigDataRate	OrigDataStartFrame	OrigNumFrames
100	100	4	42	mm	100	101	128
Frame#	Time	LASI			RASI			LPSI			RPSI			RTH1			RTH2			RTH3			LTH1			LTH2			LTH3			RTB1			RTB2			RTB3			LTB1			LTB2			LTB3			RCAL			RTOE			RMT5			LCAL			LTOE			LMT5			LACR			RACR			CLAV			C7			RUA1			RUA2			RUA3			RLEL			RMEL			LUA1			LUA2			LUA3			LLEL			LMEL			RFAsuperior			RFAradius			RFAulna			LFAsuperior			LFAradius			LFAulna			
		X1	Y1	Z1	X2	Y2	Z2	X3	Y3	Z3	X4	Y4	Z4	X5	Y5	Z5	X6	Y6	Z6	X7	Y7	Z7	X8	Y8	Z8	X9	Y9	Z9	X10	Y10	Z10	X11	Y11	Z11	X12	Y12	Z12	X13	Y13	Z13	X14	Y14	Z14	X15	Y15	Z15	X16	Y16	Z16	X17	Y17	Z17	X18	Y18	Z18	X19	Y19	Z19	X20	Y20	Z20	X21	Y21	Z21	X22	Y22	Z22	X23	Y23	Z23	X24	Y24	Z24	X25	Y25	Z25	X26	Y26	Z26	X27	Y27	Z27	X28	Y28	Z28	X29	Y29	Z29	X30	Y30	Z30	X31	Y31	Z31	X32	Y32	Z32	X33	Y33	Z33	X34	Y34	Z34	X35	Y35	Z35	X36	Y36	Z36	X37	Y37	Z37	X38	Y38	Z38	X39	Y39	Z39	X40	Y40	Z40	X41	Y41	Z41	X42	Y42	Z42	

94	1.47	791.795295	1039.656542	-426.54748	789.417636	1019.131064	-167.819912	623.2054879999999	1056.179133	-361.253759	621.214509	1056.694209	-260.015408	642.054294	850.037418	-138.672298	683.401203	720.1014269999999	-154.237341	574.8267090000001	639.490787	-176.204371	757.4199139999999	820.413833	-477.168809	878.148791	737.399059	-453.740552	866.525164	613.398904	-435.845899	464.1386	420.167217	-240.366044	397.788461	420.283474	-172.985215	305.849806	354.131874	-230.934802	981.6140779999999	412.1029	-353.066608	960.879006	315.734972	-414.789546	1011.473422	260.150547	-343.364692	164.107477	409.501255	-231.74682	156.300186	185.156868	-262.982891	124.936243	224.324035	-179.375459	950.236926	85.68819000000001	-329.530041	1164.142611	166.040188	-307.012114	1133.353583	119.638277	-396.327755	741.538932	1499.88294	-476.569541	790.999912	1519.827319	-158.210525	827.6916670000001	1447.991244	-295.969625	700.476513	1524.870449	-303.236602	756.602339	1455.760232	-61.062113	686.572947	1385.24882	-60.084193	729.32939	1341.311612	-12.243041	709.782838	1241.605197	36.928953	672.439633	1216.647748	-33.592677	655.940624	1460.731083	-541.269354	593.868608	1405.429847	-488.610389	546.08659	1368.044463	-546.5380259999999	497.73339	1298.248153	-582.833511	498.006176	1286.380893	-506.830456	813.23447	1220.290066	13.267266	942.02039	1194.037257	-66.641729	933.1913960000001	1128.929209	-36.577677	576.403761	1221.076039	-602.077522	701.60766	1112.600275	-561.145499	647.06288	1070.120315	-580.7406590000001	
95	1.48	790.452664	1035.926216	-427.222992	789.626409	1016.15787	-166.031261	621.059253	1049.256664	-360.393491	619.40362	1050.442334	-259.550031	646.370807	840.574091	-135.491824	691.037419	713.660942	-154.553646	585.803345	629.07276	-175.368637	756.900946	819.427983	-479.546677	876.288326	734.591154	-455.838191	868.810391	612.427542	-435.446237	474.598021	415.277777	-239.179246	409.120074	421.008397	-172.985226	312.32719	361.859161	-230.155053	975.227683	406.415663	-351.682862	951.674037	309.952702	-411.976105	1000.310161	253.500842	-340.568946	174.849452	427.279825	-231.35417	153.092783	203.230541	-258.487436	123.881146	246.326365	-176.134226	933.233638	84.09916699999999	-327.300992	1149.487625	153.798657	-302.069218	1117.340503	108.618717	-393.805158	744.593944	1494.327507	-477.661586	790.807993	1515.013471	-158.584593	827.967524	1442.478922	-295.620516	701.466985	1521.181802	-305.060345	754.777217	1451.193662	-61.7798	684.142636	1381.176733	-61.364095	726.078521	1336.998992	-12.915496	705.146641	1237.674315	35.980097	667.811143	1213.258208	-34.710885	659.949285	1453.536969	-544.781431	597.381999	1397.821983	-492.094795	551.742905	1358.494678	-550.794571	504.913394	1287.843187	-586.897818	504.918559	1275.741472	-511.015409	808.6814869999999	1214.417261	13.167063	937.281504	1185.707281	-66.252635	927.2377729999999	1121.010373	-35.831281	585.660761	1211.736954	-605.118434	711.516871	1105.425925	-562.284858	657.8643510000001	1062.068943	-582.382312	
96	1.49	788.547237	1031.491645	-428.670637	788.69874	1011.807939	-164.840859	618.976585	1042.117661	-359.086799	617.36893	1043.160448	-258.440553	650.504178	830.437249	-132.422989	698.318673	706.712217	-153.672831	596.768553	617.478445	-173.992532	758.903759	822.234186	-481.551211	876.921533	735.668075	-457.493511	871.5170900000001	611.992931	-433.885422	487.358977	409.633037	-237.530519	423.002188	420.428939	-172.77928	322.313985	367.56061	-228.975271	966.470863	398.887268	-349.652126	939.0753130000001	302.870865	-408.598458	984.385338	244.625461	-337.190291	191.265255	442.063306	-232.400663	153.788061	219.18554	-253.584428	127.476235	267.158358	-172.83658	908.601866	84.710354	-324.281796	1128.267571	135.143837	-297.531613	1093.343781	90.726592	-393.087601	747.31213	1487.504827	-478.682897	790.245686	1509.255203	-158.964705	827.98288	1435.949614	-295.233987	702.197262	1516.531975	-307.004373	752.723732	1445.705362	-62.420176	681.261089	1376.505014	-62.612691	722.376737	1331.79148	-13.701972	699.45019	1232.949259	34.966259	662.337688	1209.186854	-35.92923	664.09923	1444.715582	-548.4337839999999	600.709775	1388.436155	-496.506626	557.9302290000001	1347.073818	-556.356732	513.110395	1275.298775	-591.79347	512.472303	1263.177238	-515.954701	802.9636850000001	1207.289666	13.285985	931.666819	1175.498904	-65.230332	919.712058	1111.346427	-34.638426	595.93007	1200.53382	-608.375551	722.729413	1097.003778	-563.1249330000001	670.31772	1052.669651	-584.170515	
97	1.5	786.176153	1026.414809	-430.606975	787.217148	1006.068426	-164.979973	616.9187439999999	1034.959609	-357.735725	615.09223	1035.390914	-257.019557	654.743361	820.685438	-130.571984	705.596569	699.223488	-152.0466	608.22833	604.936506	-172.426906	761.09528	825.018928	-482.208012	877.766448	737.0013	-456.972732	871.04788	609.695691	-431.659911	502.464742	403.548122	-235.591125	438.859664	418.701858	-171.976517	335.599796	371.309787	-227.853081	955.957345	390.174178	-346.47127	924.551481	295.389962	-404.896615	965.063764	234.429086	-333.563126	211.195901	453.299498	-234.918068	159.192288	232.369318	-248.702584	136.345346	285.281229	-169.546253	878.325005	86.992289	-321.414051	1101.489979	112.747149	-294.525811	1062.853594	71.643491	-392.879082	749.710992	1479.554312	-479.727962	789.33605	1502.77011	-159.20758	827.875909	1428.656593	-294.865051	702.654783	1510.874512	-308.984715	750.297497	1439.352777	-62.871996	677.864751	1371.232377	-63.835192	718.128719	1325.725286	-14.501949	692.792719	1227.566316	33.937166	656.130094	1204.565377	-37.186274	668.392778	1434.393914	-552.114969	603.959854	1377.453415	-501.926199	564.623373	1333.804053	-562.730891	522.319313	1260.846737	-597.314902	520.28977	1249.032672	-521.400917	796.036353	1199.121109	13.603742	925.1151620000001	1163.70373	-63.434141	910.6226370000001	1100.145426	-32.954682	607.129726	1187.677273	-611.8472389999999	735.116623	1087.564793	-563.638424	684.320843	1042.134018	-585.977924	
